<svg id="mermaidChart230" width="100%" xmlns="http://www.w3.org/2000/svg" height="100%" style="max-width:975px;" viewBox="-150 -10 975 679"><style type="text/css" title="mermaid-svg-internal-css">/*  */
*, ::before, ::after { box-sizing: inherit;}
.actor { stroke: rgb(204, 204, 255); fill: rgb(226, 236, 255);}
text.actor { fill: black; stroke: none; font-size: 12px;}
.actor-line { stroke: grey;}
.messageLine0 { stroke-width: 1.5; stroke: black;}
.messageLine1 { stroke-width: 1.5; stroke: black;}
#arrowhead { fill: black;}
.messageText { fill: black; stroke: none; font-size: 12px;}
.note { stroke: rgb(204, 204, 255); fill: rgb(255, 245, 173);}
.noteText { fill: black; stroke: none; font-size: 12px;}
.actor { stroke: rgb(204, 204, 255); fill: rgb(236, 236, 255);}
text.actor { fill: black; stroke: none;}
.actor-line { stroke: grey;}
.messageLine0 { stroke-width: 1.5; stroke: rgb(51, 51, 51);}
.messageLine1 { stroke-width: 1.5; stroke: rgb(51, 51, 51);}
#arrowhead { fill: rgb(51, 51, 51);}
#crosshead path { fill: rgb(51, 51, 51) !important; stroke: rgb(51, 51, 51) !important;}
.messageText { fill: rgb(51, 51, 51); stroke: none;}
.note { stroke: rgb(170, 170, 51); fill: rgb(255, 245, 173);}
.noteText { fill: black; stroke: none; font-family: 'trebuchet ms', verdana, arial; font-size: 14px;}
text { font-family: 'trebuchet ms', verdana, arial; font-size: 14px;}
/*  */
</style><g></g><g><line id="actor967" x1="75" y1="5" x2="75" y2="668" class="actor-line" stroke-width="0.5px" stroke="#999"></line><rect x="0" y="0" fill="#eaeaea" stroke="#666" width="150" height="65" rx="3" ry="3" class="actor"></rect><text x="75" y="37.5" class="actor" style="text-anchor: middle;">Page1</text></g><g><line id="actor968" x1="275" y1="5" x2="275" y2="668" class="actor-line" stroke-width="0.5px" stroke="#999"></line><rect x="200" y="0" fill="#eaeaea" stroke="#666" width="150" height="65" rx="3" ry="3" class="actor"></rect><text x="275" y="37.5" class="actor" style="text-anchor: middle;">Page2</text></g><g><line id="actor969" x1="475" y1="5" x2="475" y2="668" class="actor-line" stroke-width="0.5px" stroke="#999"></line><rect x="400" y="0" fill="#eaeaea" stroke="#666" width="150" height="65" rx="3" ry="3" class="actor"></rect><text x="475" y="37.5" class="actor" style="text-anchor: middle;">SharedWorker</text></g><g><line id="actor970" x1="675" y1="5" x2="675" y2="668" class="actor-line" stroke-width="0.5px" stroke="#999"></line><rect x="600" y="0" fill="#eaeaea" stroke="#666" width="150" height="65" rx="3" ry="3" class="actor"></rect><text x="675" y="37.5" class="actor" style="text-anchor: middle;">IndexDb</text></g><defs><marker id="arrowhead" refX="5" refY="2" markerWidth="6" markerHeight="4" orient="auto"><path d="M 0,0 V 4 L6,2 Z"></path></marker></defs><defs><marker id="crosshead" markerWidth="15" markerHeight="8" orient="auto" refX="16" refY="4"><path fill="black" stroke="#000000" stroke-width="1px" d="M 9,2 V 6 L16,4 Z" style="stroke-dasharray: 0, 0;"></path><path fill="none" stroke="#000000" stroke-width="1px" d="M 0,1 L 6,7 M 6,1 L 0,7" style="stroke-dasharray: 0, 0;"></path></marker></defs><g><rect x="-100" y="75" fill="#EDF2AE" stroke="#666" width="150" height="36" rx="0" ry="0" class="note"></rect><text x="-84" y="103" fill="black" class="noteText"><tspan x="-84">Open first page</tspan></text></g><g><text x="275" y="139" class="messageText" style="text-anchor: middle;">connection</text><line x1="75" y1="146" x2="475" y2="146" class="messageLine0" stroke-width="2" stroke="black" marker-end="url(#arrowhead)" style="fill: none;"></line></g><g><text x="575" y="174" class="messageText" style="text-anchor: middle;">get project</text><line x1="475" y1="181" x2="675" y2="181" class="messageLine0" stroke-width="2" stroke="black" marker-end="url(#arrowhead)" style="fill: none;"></line></g><g><text x="575" y="209" class="messageText" style="text-anchor: middle;">project</text><line x1="675" y1="216" x2="475" y2="216" class="messageLine1" stroke-width="2" stroke="black" marker-end="url(#arrowhead)" style="stroke-dasharray: 3, 3; fill: none;"></line></g><g><text x="275" y="244" class="messageText" style="text-anchor: middle;">get project</text><line x1="475" y1="251" x2="75" y2="251" class="messageLine1" stroke-width="2" stroke="black" marker-end="url(#arrowhead)" style="stroke-dasharray: 3, 3; fill: none;"></line></g><g><rect x="100" y="261" fill="#EDF2AE" stroke="#666" width="150" height="36" rx="0" ry="0" class="note"></rect><text x="116" y="289" fill="black" class="noteText"><tspan x="116">Open a 2nd page</tspan></text></g><g><text x="375" y="325" class="messageText" style="text-anchor: middle;">connection</text><line x1="275" y1="332" x2="475" y2="332" class="messageLine0" stroke-width="2" stroke="black" marker-end="url(#arrowhead)" style="fill: none;"></line></g><g><text x="375" y="360" class="messageText" style="text-anchor: middle;">get project</text><line x1="475" y1="367" x2="275" y2="367" class="messageLine1" stroke-width="2" stroke="black" marker-end="url(#arrowhead)" style="stroke-dasharray: 3, 3; fill: none;"></line></g><g><rect x="-100" y="377" fill="#EDF2AE" stroke="#666" width="150" height="36" rx="0" ry="0" class="note"></rect><text x="-84" y="405" fill="black" class="noteText"><tspan x="-84">Modify project</tspan></text></g><g><text x="275" y="441" class="messageText" style="text-anchor: middle;">send update</text><line x1="75" y1="448" x2="475" y2="448" class="messageLine0" stroke-width="2" stroke="black" marker-end="url(#arrowhead)" style="fill: none;"></line></g><g><text x="375" y="476" class="messageText" style="text-anchor: middle;">update project</text><line x1="475" y1="483" x2="275" y2="483" class="messageLine0" stroke-width="2" stroke="black" marker-end="url(#arrowhead)" style="fill: none;"></line></g><g><text x="575" y="511" class="messageText" style="text-anchor: middle;">update project</text><line x1="475" y1="518" x2="675" y2="518" class="messageLine0" stroke-width="2" stroke="black" marker-end="url(#arrowhead)" style="fill: none;"></line></g><g><text x="675" y="546" class="messageText" style="text-anchor: middle;">update incremental log</text><path d="M 675,553 C 735,543 735,583 675,573" class="messageLine0" stroke-width="2" stroke="black" marker-end="url(#arrowhead)" style="fill: none;"></path></g><g><rect x="0" y="603" fill="#eaeaea" stroke="#666" width="150" height="65" rx="3" ry="3" class="actor"></rect><text x="75" y="640.5" class="actor" style="text-anchor: middle;">Page1</text></g><g><rect x="200" y="603" fill="#eaeaea" stroke="#666" width="150" height="65" rx="3" ry="3" class="actor"></rect><text x="275" y="640.5" class="actor" style="text-anchor: middle;">Page2</text></g><g><rect x="400" y="603" fill="#eaeaea" stroke="#666" width="150" height="65" rx="3" ry="3" class="actor"></rect><text x="475" y="640.5" class="actor" style="text-anchor: middle;">SharedWorker</text></g><g><rect x="600" y="603" fill="#eaeaea" stroke="#666" width="150" height="65" rx="3" ry="3" class="actor"></rect><text x="675" y="640.5" class="actor" style="text-anchor: middle;">IndexDb</text></g></svg>